<?xml version="1.0"?>
<svg xmlns="http://www.w3.org/2000/svg" id="Layer_1" data-name="Layer 1" viewBox="0 0 512 512" width="512" height="512"><title>Package cost</title><g id="_Group_2" data-name=" Group 2"><circle cx="399.41" cy="252.49" r="95" style="fill:#6fe3ff"/><polygon points="217.59 180.25 217.59 221.77 201.55 221.77 139.95 221.77 95.48 221.77 33.87 221.77 17.59 221.77 17.59 180.25 217.59 180.25" style="fill:#af593c"/><polygon points="201.55 221.77 201.55 331.75 33.87 331.75 33.87 221.77 95.48 221.77 95.48 222.08 95.48 278.1 117.42 264.8 139.95 278.1 139.95 222.08 139.95 221.77 201.55 221.77" style="fill:#e48e66"/><polygon points="139.95 222.08 139.95 278.1 117.42 264.8 95.48 278.1 95.48 222.08 95.48 221.77 139.95 221.77 139.95 222.08" style="fill:#f8ec7d"/><path d="M370.206,94.69a6.992,6.992,0,0,1-5.74-2.985,130.058,130.058,0,0,0-192.86-22.82,6.871,6.871,0,0,1-.968.721,7,7,0,0,1-8.767-10.773,6.8,6.8,0,0,1,.63-.584A144.057,144.057,0,0,1,375.935,83.675a7,7,0,0,1-5.729,11.015Z" style="fill:#f8ec7d"/><path d="M191.82,95.51H141.66a7,7,0,0,1-7-7V38.35a7,7,0,0,1,11.95-4.95l50.161,50.16a7,7,0,0,1-4.951,11.95Z" style="fill:#6fe3ff"/><path d="M253.91,489.84a144.28,144.28,0,0,1-118.074-61.515,7,7,0,0,1,11.469-8.03,130.055,130.055,0,0,0,192.858,22.82,7,7,0,0,1,9.736,10.052,7.191,7.191,0,0,1-.641.6A143.786,143.786,0,0,1,253.91,489.84Z" style="fill:#f8ec7d"/><path d="M370.112,480.65a7,7,0,0,1-4.951-2.05L315,428.44a7,7,0,0,1,4.95-11.95h50.16a7,7,0,0,1,7,7v50.16a7,7,0,0,1-7,7Z" style="fill:#6fe3ff"/><path d="M399.63,244.93a17.29,17.29,0,1,1,17.29-17.29,7,7,0,0,0,7,7,7.16,7.16,0,0,0,7.185-7A31.064,31.064,0,0,0,407,197.149V190.01a7,7,0,0,0-14,0v7.139a31.262,31.262,0,0,0,6.722,61.781,17.293,17.293,0,0,1,.028,34.585c-.033,0-.076,0-.109,0s-.069,0-.1,0a17.314,17.314,0,0,1-17.206-17.285,7,7,0,0,0-7-7,6.845,6.845,0,0,0-6.816,7A31.4,31.4,0,0,0,393,306.721v8.249a7,7,0,0,0,14,0v-8.249a31.064,31.064,0,0,0,24.105-30.491A31.489,31.489,0,0,0,399.63,244.93Z" style="fill:#2561a1"/></g></svg>
