<svg version="1.1" xmlns="http://www.w3.org/2000/svg" xmlns:xlink="http://www.w3.org/1999/xlink" preserveAspectRatio="xMidYMid meet" viewBox="851 178 148 128"><g data-item-type="text" data-item="Business" id="logo__item--business" class="logo__item">
                <g class="logo__item__inner" transform="translate(852.3828125 298.43093196574) scale(1 1) rotate(0 0 0)">
                    <text data-part-id="logo__item--business" dy="0" dominant-baseline="auto" alignment-baseline="auto" font-family="Montserrat" font-size="32px" fill="#00A873" letter-spacing="0" font-weight="bold" font-style="normal" data-font-family="Montserrat" data-font-weight="bold" data-font-style="normal" data-ttf-url="/builder_assets/fontsttf/font-montserrat-bold-normal.ttf">myITBox</text>
                </g>
            </g><g data-item-type="image" data-item="Image" data-logo-item="" id="logo__item--logo_0" class="logo__item">
    <g class="logo__item__inner" transform="translate(860.2290054514297 157) scale(0.8382236606074146 0.8382236606074146) rotate(0 0 0)">
        
<g>
	<path fill="#00A873" d="M64.7,107.5h18.9c1.4,0,2.4-1.1,2.4-2.4c0-1.4-1.1-2.4-2.4-2.4H64.7c-1.3,0-2.4,1.1-2.4,2.4   C62.3,106.4,63.4,107.5,64.7,107.5z" data-part-id="logo__item--logo_0__0"></path>
	<path fill="#00A873" d="M137.4,73.4C134,57.9,119.5,47,103.3,48.4c-0.3,0-0.6,0.1-0.9,0.1c-2-1.8-4.5-3.1-7.1-3.7   C91.1,34.7,80.8,28,69.4,29c-9.6,0.9-17.5,7-21.1,15.3c-1.8-0.4-3.6-0.6-5.5-0.4c-7.5,0.7-13.4,6.3-14.5,13.5c-0.5,0-1,0-1.5,0.1   C12.6,58.7,2.2,71.2,3.4,85.3c1.3,14.1,13.8,24.6,27.9,23.3c2.6-0.2,5-0.9,7.3-1.9V93.1l5.5-10.8L44,93.1h60.3l-0.1-10.8l5.5,10.8   v27.2H40.6v1.9h71.1v-10.4c6.2-1.1,11.7-3.9,16-7.9c1.3,0.3,2.7,0.3,4,0.2c8.9-0.8,15.5-8.7,14.7-17.5   C146,80.6,142.4,75.8,137.4,73.4z M54.8,58.4c0-4.6,3.8-8.4,8.4-8.4h21.9c4.6,0,8.4,3.8,8.4,8.4v3h-4.9v-3c0-1.9-1.6-3.5-3.5-3.5   H63.2c-1.9,0-3.5,1.6-3.5,3.5v3h-4.9V58.4z M89.6,70.7H58.8c-3.3,0-5.9,2.7-5.9,5.9v12h-4.9v-12c0-6,4.9-10.8,10.8-10.8h30.9   c6,0,10.8,4.9,10.8,10.8v12h-4.9v-12C95.6,73.3,92.9,70.7,89.6,70.7z" data-part-id="logo__item--logo_0__1"></path>
</g>

    </g>
</g></svg>