<?xml version="1.0"?>
<svg xmlns="http://www.w3.org/2000/svg" id="Layer_1" data-name="Layer 1" viewBox="0 0 512 512" width="512" height="512"><title>Pacman</title><path d="M201.686,256a7,7,0,0,1,2.886-5.664L333.5,156.687a161.059,161.059,0,0,0-51.27-42.249,157.7,157.7,0,0,0-73.54-17.928C120.743,96.51,49.2,168.057,49.2,256s71.547,159.49,159.49,159.49a157.7,157.7,0,0,0,73.54-17.928,161.059,161.059,0,0,0,51.27-42.249L204.572,261.664A7,7,0,0,1,201.686,256Zm-58.7-91a36.565,36.565,0,1,1,36.565,36.565A36.606,36.606,0,0,1,142.99,165Z"/><circle cx="179.555" cy="165" r="22.565"/><circle cx="343.555" cy="256" r="22.565"/><circle cx="440.239" cy="256" r="22.565"/></svg>
