<?xml version="1.0"?>
<svg xmlns="http://www.w3.org/2000/svg" id="Layer_1" data-name="Layer 1" viewBox="0 0 512 512" width="24" height="24"><title>Pacman</title><path d="M440.24,226.44A29.56,29.56,0,1,1,410.67,256,29.554,29.554,0,0,1,440.24,226.44Z" style="fill:#00acea"/><path d="M343.55,226.44A29.56,29.56,0,1,1,313.99,256,29.563,29.563,0,0,1,343.55,226.44Z" style="fill:#00acea"/><path d="M343.41,158.14,208.69,256l134.72,97.86a166.49,166.49,0,1,1,0-195.72Z" style="fill:#fedb41"/><path d="M179.55,135.44A29.56,29.56,0,1,1,149.99,165,29.563,29.563,0,0,1,179.55,135.44Z" style="fill:#00efd1"/></svg>
