<svg height="512pt" viewBox="-39 0 512 512" width="512pt" xmlns="http://www.w3.org/2000/svg"><path d="m224.699219 150v107h-30v-77zm0 0" fill="#7fe881"/><path d="m224.699219 150v107h-15v-92zm0 0" fill="#5bc980"/><path d="m299.699219 30c-33 0-62.398438 15.597656-81.597657 39.601562-2.101562-6.300781-5.101562-12.300781-8.402343-17.703124-18-30.898438-51.597657-51.898438-90-51.898438h-45v45c0 57.898438 47.101562 105 105 105h15v30h45c57.902343 0 105-47.101562 105-105v-45zm0 0" fill="#7fe881"/><path d="m239.699219 180h-30v-128.101562c3.300781 5.402343 6.300781 11.402343 8.402343 17.703124 19.199219-24.003906 48.597657-39.601562 81.597657-39.601562h45v45c0 57.898438-47.101563 105-105 105zm0 0" fill="#5bc980"/><path d="m344.699219 377c0 27.898438-8.398438 53.398438-22.800781 75h-224.398438c-14.398438-21.601562-22.800781-47.101562-22.800781-75 0-74.699219 60.300781-135 135-135s135 60.300781 135 135zm0 0" fill="#895d3c"/><path d="m344.699219 377c0 27.898438-8.398438 53.398438-22.800781 75h-112.199219v-210c74.699219 0 135 60.300781 135 135zm0 0" fill="#714c2f"/><path d="m433.5 272-110.101562 210h-190.199219l-37.5 30-95.699219-95.699219 69.902344-62.703125c14.097656-14.097656 32.996094-21.597656 52.796875-21.597656h177.601562l-31.5 60h-96.101562v30h114.402343l56.699219-108.300781c12.597657-24.300781 36.898438-41.699219 64.199219-41.699219h.601562zm0 0" fill="#fde4e4"/><g fill="#fcced3"><path d="m268.800781 392h-59.101562v-60h90.601562zm0 0"/><path d="m433.5 272-110.101562 210h-113.699219v-60h77.402343l56.699219-108.300781c12.601563-24.300781 36.898438-41.699219 64.199219-41.699219h.601562zm0 0"/></g></svg>